<svg width="40" height="40" viewBox="0 0 40 40" fill="none" xmlns="http://www.w3.org/2000/svg">
<path d="M19.9997 7.48334C20.2337 7.7056 20.3714 8.01076 20.383 8.33334C20.3894 8.67913 20.2503 9.01172 19.9997 9.25001L10.4997 18.75L32.5331 18.75C33.2197 18.759 33.7741 19.3134 33.7831 20C33.7741 20.6866 33.2197 21.241 32.5331 21.25L10.4996 21.25L19.9997 30.75C20.3271 31.0686 20.4598 31.5376 20.3477 31.9805C20.2355 32.4234 19.8956 32.7729 19.456 32.8972C19.0164 33.0216 18.5438 32.9019 18.2163 32.5833L6.54965 20.9167C6.0798 20.4215 6.0798 19.6452 6.54965 19.15L18.2163 7.48334C18.4513 7.24412 18.7726 7.10937 19.108 7.10937C19.4433 7.10937 19.7646 7.24412 19.9997 7.48334Z" fill="black"/>
</svg>
