<svg width="35" height="35" viewBox="0 0 35 35" fill="none" xmlns="http://www.w3.org/2000/svg">
<g id="Icon">
<path fill-rule="evenodd" clip-rule="evenodd" d="M22.3765 10.8424C22.2329 10.8255 22.0878 10.8255 21.9442 10.8424L14.128 12.8656C13.5057 13.0199 13.0199 13.5057 12.8656 14.128L10.8943 22.0133C10.7643 22.5382 10.8873 23.0937 11.2267 23.5146C11.5662 23.9356 12.083 24.1735 12.6235 24.1576C12.7671 24.1745 12.9122 24.1745 13.0558 24.1576L20.9585 22.1344C21.5807 21.9801 22.0666 21.4943 22.2209 20.872L24.1922 12.9867C24.3222 12.4618 24.1992 11.9063 23.8597 11.4854C23.5203 11.0644 23.0035 10.8265 22.4629 10.8424H22.3765ZM20.4743 14.4565L19.2638 19.333L14.3874 20.5435L15.5978 15.667L20.4743 14.4565Z" fill="black"/>
<path fill-rule="evenodd" clip-rule="evenodd" d="M21.166 0H13.834C6.19369 0 0 6.19369 0 13.834V21.166C0 28.8063 6.19369 35 13.834 35H21.166C28.8063 35 35 28.8063 35 21.166V13.834C35 6.19369 28.8063 0 21.166 0ZM13.834 32.4061C7.6302 32.3966 2.6034 27.3698 2.59387 21.166V13.834C2.6034 7.6302 7.6302 2.6034 13.834 2.59387H21.166C27.3698 2.6034 32.3966 7.6302 32.4061 13.834V21.166C32.3966 27.3698 27.3698 32.3966 21.166 32.4061H13.834Z" fill="black"/>
</g>
</svg>
