<svg width="103" height="103" viewBox="0 0 103 103" fill="none" xmlns="http://www.w3.org/2000/svg">
<path d="M73.8466 97.1229H29.1062C17.1527 97.1229 9.5537 89.9935 8.87064 78.0827L6.6507 42.8624C6.30917 37.526 8.14489 32.4031 11.8163 28.5182C15.4451 24.6333 20.568 22.4134 25.8617 22.4134C27.2278 22.4134 28.5513 21.6022 29.1916 20.3215L32.2654 14.2167C34.7842 9.22181 41.1025 5.33691 46.6096 5.33691H56.3859C61.8931 5.33691 68.1687 9.22181 70.6874 14.174L73.7612 20.4069C74.4016 21.6022 75.6823 22.4134 77.0911 22.4134C82.3848 22.4134 87.5078 24.6333 91.1365 28.5182C94.8079 32.4458 96.6437 37.526 96.3021 42.8624L94.0822 78.1253C93.3138 90.2069 85.9282 97.1229 73.8466 97.1229ZM46.6096 11.7406C43.4505 11.7406 39.4375 14.2167 37.986 17.077L34.9122 23.2245C33.1192 26.6825 29.6612 28.8171 25.8617 28.8171C22.2757 28.8171 18.9458 30.2686 16.4697 32.8727C14.0363 35.4769 12.7982 38.8922 13.0544 42.4355L15.2743 77.6984C15.7866 86.322 20.4399 90.7192 29.1062 90.7192H73.8466C82.4702 90.7192 87.1235 86.322 87.6785 77.6984L89.8985 42.4355C90.1119 38.8922 88.9166 35.4769 86.4832 32.8727C84.0071 30.2686 80.6772 28.8171 77.0911 28.8171C73.2916 28.8171 69.8336 26.6825 68.0406 23.3099L64.9241 17.077C63.5153 14.2594 59.5024 11.7833 56.3432 11.7833H46.6096V11.7406Z" fill="#292D32"/>
<path d="M57.8813 37.3548H45.0739C43.3236 37.3548 41.8721 35.9033 41.8721 34.153C41.8721 32.4027 43.3236 30.9512 45.0739 30.9512H57.8813C59.6316 30.9512 61.0831 32.4027 61.0831 34.153C61.0831 35.9033 59.6316 37.3548 57.8813 37.3548Z" fill="#292D32"/>
<path d="M51.4778 80.0455C42.0431 80.0455 34.4014 72.4038 34.4014 62.969C34.4014 53.5343 42.0431 45.8926 51.4778 45.8926C60.9126 45.8926 68.5543 53.5343 68.5543 62.969C68.5543 72.4038 60.9126 80.0455 51.4778 80.0455ZM51.4778 52.2963C45.5865 52.2963 40.805 57.0777 40.805 62.969C40.805 68.8604 45.5865 73.6418 51.4778 73.6418C57.3692 73.6418 62.1506 68.8604 62.1506 62.969C62.1506 57.0777 57.3692 52.2963 51.4778 52.2963Z" fill="#292D32"/>
</svg>
