<svg width="121" height="121" viewBox="0 0 121 121" fill="none" xmlns="http://www.w3.org/2000/svg">
<path d="M67.6932 46.2978H10.1338C8.08164 46.2978 6.37988 44.596 6.37988 42.5439C6.37988 40.4918 8.08164 38.79 10.1338 38.79H67.6932C69.7453 38.79 71.4471 40.4918 71.4471 42.5439C71.4471 44.596 69.7453 46.2978 67.6932 46.2978Z" fill="#292D32"/>
<path d="M40.1656 86.3388H30.1552C28.1031 86.3388 26.4014 84.6371 26.4014 82.5849C26.4014 80.5328 28.1031 78.8311 30.1552 78.8311H40.1656C42.2177 78.8311 43.9195 80.5328 43.9195 82.5849C43.9195 84.6371 42.2177 86.3388 40.1656 86.3388Z" fill="#292D32"/>
<path d="M72.6994 86.3388H52.6787C50.6266 86.3388 48.9248 84.6371 48.9248 82.5849C48.9248 80.5328 50.6266 78.8311 52.6787 78.8311H72.6994C74.7515 78.8311 76.4532 80.5328 76.4532 82.5849C76.4532 84.6371 74.7515 86.3388 72.6994 86.3388Z" fill="#292D32"/>
<path d="M88.0142 106.359H32.3567C12.4361 106.359 6.37988 100.353 6.37988 80.6328V39.4902C6.37988 19.7699 12.4361 13.7637 32.3567 13.7637H67.6932C69.7453 13.7637 71.4471 15.4654 71.4471 17.5175C71.4471 19.5697 69.7453 21.2714 67.6932 21.2714H32.3567C16.6405 21.2714 13.8876 23.9742 13.8876 39.4902V80.5827C13.8876 96.0987 16.6405 98.8015 32.3567 98.8015H87.9641C103.68 98.8015 106.433 96.0987 106.433 80.5827V55.1564C106.433 53.1043 108.135 51.4026 110.187 51.4026C112.239 51.4026 113.941 53.1043 113.941 55.1564V80.5827C113.991 100.353 107.935 106.359 88.0142 106.359Z" fill="#292D32"/>
<path d="M90.2188 41.2942C89.2679 41.2942 88.3169 40.9439 87.5661 40.1931L80.0584 32.6854C78.6069 31.2339 78.6069 28.8314 80.0584 27.3799C81.5099 25.9284 83.9123 25.9284 85.3638 27.3799L90.2188 32.2349L107.587 14.8669C109.038 13.4154 111.441 13.4154 112.892 14.8669C114.344 16.3184 114.344 18.7209 112.892 20.1724L92.8716 40.1931C92.1208 40.9439 91.1698 41.2942 90.2188 41.2942Z" fill="#292D32"/>
</svg>
