<svg width="27" height="27" viewBox="0 0 27 27" fill="none" xmlns="http://www.w3.org/2000/svg">
<g id="Icon">
<path fill-rule="evenodd" clip-rule="evenodd" d="M8.52632 0H18.4737C23.1826 0 27 3.81736 27 8.52632V18.4737C27 23.1826 23.1826 27 18.4737 27H8.52632C3.81736 27 0 23.1826 0 18.4737V8.52632C0 3.81736 3.81736 0 8.52632 0ZM18.4737 24.8684C22.0022 24.8606 24.8606 22.0022 24.8684 18.4737V8.52632C24.8606 4.99784 22.0022 2.13939 18.4737 2.13158H8.52632C4.99784 2.13939 2.13939 4.99784 2.13158 8.52632V18.4737C2.13939 22.0022 4.99784 24.8606 8.52632 24.8684H18.4737Z" fill="white"/>
<path d="M18.0189 6.39474C17.4335 6.40239 16.9608 6.87511 16.9532 7.46053C16.9384 8.35758 16.5647 9.21131 15.9158 9.83085C15.2669 10.4504 14.3968 10.7841 13.5 10.7574C11.6529 10.8132 10.1086 9.3643 10.0468 7.51737C10.0468 6.92875 9.56967 6.45158 8.98105 6.45158C8.39243 6.45158 7.91526 6.92875 7.91526 7.51737C7.97744 10.5414 10.4758 12.9444 13.5 12.8889C16.5242 12.9444 19.0226 10.5414 19.0847 7.51737C19.1004 7.22499 18.995 6.93906 18.7934 6.72672C18.5918 6.51438 18.3117 6.39432 18.0189 6.39474Z" fill="white"/>
</g>
</svg>
