<svg width="114" height="114" viewBox="0 0 114 114" fill="none" xmlns="http://www.w3.org/2000/svg">
<g id="Icon">
<path d="M38.1413 32.3804C36.5353 30.8839 34.0326 30.9281 32.4803 32.4803C30.9281 34.0326 30.8839 36.5353 32.3804 38.1413L52.9239 58.6848V84.1739C52.9239 86.4251 54.7488 88.25 57 88.25C59.2512 88.25 61.0761 86.4251 61.0761 84.1739V57C61.0751 55.9193 60.6451 54.8832 59.8804 54.1196L38.1413 32.3804Z" stroke="black" stroke-width="3"/>
<path fill-rule="evenodd" clip-rule="evenodd" d="M45.4783 2H68.5217C80.0529 2 91.1118 6.58073 99.2655 14.7345C107.419 22.8882 112 33.9471 112 45.4783V68.5217C112 92.5341 92.5341 112 68.5217 112H45.4783C21.4659 112 2 92.5341 2 68.5217V45.4783C2 21.4659 21.4659 2 45.4783 2ZM68.5217 103.848C88.0194 103.818 103.818 88.0194 103.848 68.5217V45.4783C103.818 25.9806 88.0194 10.1821 68.5217 10.1522H45.4783C25.9806 10.1821 10.1821 25.9806 10.1522 45.4783V68.5217C10.1821 88.0194 25.9806 103.818 45.4783 103.848H68.5217Z" stroke="black" stroke-width="3"/>
</g>
</svg>
