<svg width="98" height="135" viewBox="0 0 98 135" fill="none" xmlns="http://www.w3.org/2000/svg">
<path id="Icon" fill-rule="evenodd" clip-rule="evenodd" d="M66.1429 86.3388H66.5454C79.7277 80.4913 90.2411 69.8777 95.9998 56.6038V86.0016C96.0535 104.844 84.9496 121.914 67.7531 129.424H67.2835C61.5976 131.844 55.4766 133.06 49.3022 132.998C43.3342 133.014 37.4241 131.822 31.9248 129.492L30.1804 128.75C13.0212 121.536 1.89213 104.626 2.00079 85.9342V84.7205C2.12952 75.1483 6.01132 66.0136 12.803 59.3009L14.0107 58.1546C24.687 47.6465 33.492 35.3771 40.0432 21.8793L49.2351 3C49.2351 3 58.7625 16.4852 67.619 29.9705C78.4199 46.0759 74.8276 67.8544 59.4335 79.5962H58.6283C57.0302 81.6175 57.2037 84.524 59.0309 86.3388C59.7952 86.9873 60.7852 87.3028 61.7817 87.2153C63.2719 87.1525 64.7433 86.8568 66.1429 86.3388ZM63.1908 120.052H63.6605V119.984C77.0757 114.076 85.7763 100.788 85.8687 86.0691C81.3438 90.0711 76.1697 93.2639 70.5712 95.5087L69.6989 95.8459C67.1733 96.8341 64.4919 97.3593 61.7818 97.3967C58.1092 97.5268 54.5442 96.1376 51.919 93.5534C46.4375 88.1091 45.9169 79.3894 50.7113 73.3255C51.2966 72.5903 51.973 71.9332 52.7241 71.3702H53.1938C64.5073 62.8891 67.1689 46.9591 59.2322 35.2297C56.3472 30.9144 53.4621 26.5992 50.7784 22.7559L49.101 26.262C41.9999 40.6453 32.5162 53.71 21.0556 64.8972L19.8479 66.0435C14.9747 70.8765 12.1806 77.4365 12.065 84.316V85.5971C11.8832 100.29 20.5882 113.626 34.0719 119.31L35.8163 120.052C44.5633 123.784 54.4438 123.784 63.1908 120.052Z" stroke="black" stroke-width="3"/>
</svg>
