<svg width="142" height="124" viewBox="0 0 142 124" fill="none" xmlns="http://www.w3.org/2000/svg">
<path opacity="0.05" d="M60.9023 118.623L60.8676 118.588L60.8306 118.556C38.2128 98.7215 26.7391 88.6385 20.9189 83.4263C17.999 80.8114 16.5338 79.4507 15.8001 78.7067C15.625 78.5291 15.5022 78.3973 15.4167 78.2997V78.0078L14.9773 77.5685L14.2815 76.8727C6.21476 68.806 1.5 57.3591 1.5 45.925V44.5543C2.18362 20.3322 21.6881 1.5 45.925 1.5C53.1437 1.5 63.1212 5.48109 69.0792 13.425L70.2792 15.025L71.4792 13.425C77.4178 5.50684 88.0751 1.5 95.3291 1.5C119.523 1.5 138.385 20.293 139.754 44.5754V45.925C139.754 58.0236 135.061 68.7948 126.951 77.5898L126.277 78.2643C125.991 78.5501 124.788 79.6228 120.247 83.6721C114.364 88.9186 102.876 99.1621 80.5195 119.165C77.2169 121.131 74.0394 122.358 70.2792 122.358C67.1335 122.358 63.3619 121.082 60.9023 118.623ZM23.2253 77.5294L23.2582 77.567L23.2935 77.6023C24.0664 78.3752 25.5399 79.5673 27.612 81.1992C28.4431 81.8539 29.3741 82.5817 30.4115 83.3928C32.0215 84.6515 33.888 86.1108 36.0362 87.8082C43.061 93.3587 52.9461 101.336 65.7798 112.434C67.0574 113.694 68.6276 114.399 70.2792 114.399C71.9349 114.399 73.5088 113.69 74.788 112.425C101.221 88.7745 116.486 75.5932 119.925 72.8421L119.989 72.7902L120.048 72.7315L120.744 72.0356C127.991 64.7881 131.621 55.3574 131.621 45.925V44.5333V44.5066L131.62 44.4798C130.895 24.1807 114.916 8.9375 94.6333 8.9375C91.9122 8.9375 88.0212 9.88802 84.3684 11.8058C80.7127 13.725 77.1133 16.7096 75.1886 20.9228C74.0823 23.1126 71.8737 24.2458 69.5833 24.2458C67.285 24.2458 65.069 23.1048 63.9666 20.9C62.0548 17.0764 58.6648 14.0998 55.099 12.0883C51.5424 10.082 47.6364 8.9375 44.5333 8.9375C24.945 8.9375 8.27277 24.878 7.54686 44.4778L7.54583 44.5056V44.5333V46.6208C7.54583 56.0888 11.8938 65.4884 18.387 72L23.2253 77.5294Z" fill="black" stroke="black" stroke-width="3"/>
</svg>
