<svg width="167" height="167" viewBox="0 0 167 167" fill="none" xmlns="http://www.w3.org/2000/svg">
<g id="Interface essential/Heart">
<path id="Icon" d="M74.8183 139.498L74.7836 139.463L74.7467 139.431C52.1288 119.596 40.6552 109.513 34.8349 104.301C31.915 101.686 30.4499 100.326 29.7162 99.5817C29.541 99.4041 29.4182 99.2723 29.3327 99.1747V98.8828L28.8933 98.4435L28.1975 97.7477C20.1308 89.681 15.416 78.2341 15.416 66.8V65.4293C16.0996 41.2072 35.6041 22.375 59.841 22.375C67.0597 22.375 77.0372 26.3561 82.9952 34.3L84.1952 35.9L85.3952 34.3C91.3338 26.3818 101.991 22.375 109.245 22.375C133.439 22.375 152.301 41.168 153.67 65.4504V66.8C153.67 78.8986 148.977 89.6698 140.867 98.4648L140.193 99.1393C139.907 99.4251 138.704 100.498 134.163 104.547C128.28 109.794 116.792 120.037 94.4355 140.04C91.1329 142.006 87.9554 143.233 84.1952 143.233C81.0495 143.233 77.2779 141.957 74.8183 139.498ZM37.1413 98.4044L37.1742 98.442L37.2095 98.4773C37.9824 99.2502 39.4559 100.442 41.528 102.074C42.3591 102.729 43.2901 103.457 44.3275 104.268C45.9375 105.527 47.804 106.986 49.9522 108.683C56.977 114.234 66.8621 122.211 79.6958 133.309C80.9734 134.569 82.5436 135.274 84.1952 135.274C85.8509 135.274 87.4248 134.565 88.704 133.3C115.137 109.65 130.402 96.4682 133.841 93.7171L133.905 93.6652L133.964 93.6065L134.66 92.9106C141.908 85.6631 145.537 76.2324 145.537 66.8V65.4083V65.3816L145.536 65.3548C144.811 45.0557 128.832 29.8125 108.549 29.8125C105.828 29.8125 101.937 30.763 98.2844 32.6808C94.6287 34.6 91.0293 37.5846 89.1046 41.7978C87.9983 43.9876 85.7898 45.1208 83.4994 45.1208C81.201 45.1208 78.9851 43.9798 77.8827 41.775C75.9708 37.9514 72.5808 34.9748 69.015 32.9633C65.4584 30.957 61.5525 29.8125 58.4493 29.8125C38.8611 29.8125 22.1888 45.753 21.4629 65.3528L21.4618 65.3806V65.4083V67.4958C21.4618 76.9638 25.8098 86.3634 32.303 92.875L37.1413 98.4044Z" stroke="black" stroke-width="3"/>
</g>
</svg>
