<svg width="101" height="101" viewBox="0 0 101 101" fill="none" xmlns="http://www.w3.org/2000/svg">
<path d="M74.8666 95.7398H26.1341C14.6032 95.7398 5.26074 86.3552 5.26074 74.8244V43.6406C5.26074 37.9173 8.79574 30.7211 13.3407 27.1861L36.0237 9.51105C42.8412 4.20855 53.7407 3.95605 60.8107 8.92188L86.8182 27.144C91.8261 30.6369 95.7399 38.1277 95.7399 44.2298V74.8665C95.7399 86.3552 86.3974 95.7398 74.8666 95.7398ZM39.8953 14.4769L17.2124 32.1519C14.2245 34.5086 11.5732 39.8531 11.5732 43.6406V74.8244C11.5732 82.8623 18.0962 89.4273 26.1341 89.4273H74.8666C82.9045 89.4273 89.4274 82.9044 89.4274 74.8665V44.2298C89.4274 40.1898 86.5237 34.5927 83.1991 32.3202L57.1916 14.0981C52.3941 10.7315 44.4824 10.8998 39.8953 14.4769Z" fill="#292D32"/>
<path d="M50.5 78.9062C48.7746 78.9062 47.3438 77.4754 47.3438 75.75V63.125C47.3438 61.3996 48.7746 59.9688 50.5 59.9688C52.2254 59.9688 53.6562 61.3996 53.6562 63.125V75.75C53.6562 77.4754 52.2254 78.9062 50.5 78.9062Z" fill="#292D32"/>
</svg>
