<svg width="381" height="106" viewBox="0 0 381 106" fill="none" xmlns="http://www.w3.org/2000/svg">
<path d="M1.14986 104V30.3636H21.5724V104H1.14986ZM11.4091 20.8714C8.37287 20.8714 5.76811 19.8647 3.59482 17.8512C1.45348 15.8057 0.382812 13.3608 0.382812 10.5163C0.382812 7.70383 1.45348 5.29084 3.59482 3.27734C5.76811 1.23189 8.37287 0.209157 11.4091 0.209157C14.4453 0.209157 17.0341 1.23189 19.1754 3.27734C21.3487 5.29084 22.4354 7.70383 22.4354 10.5163C22.4354 13.3608 21.3487 15.8057 19.1754 17.8512C17.0341 19.8647 14.4453 20.8714 11.4091 20.8714ZM91.5773 34.055C91.1938 30.1879 89.5479 27.1836 86.6395 25.0423C83.7311 22.9009 79.784 21.8303 74.7982 21.8303C71.4104 21.8303 68.55 22.3097 66.2169 23.2685C63.8838 24.1953 62.094 25.4897 60.8476 27.1516C59.6331 28.8136 59.0258 30.6992 59.0258 32.8086C58.9619 34.5664 59.3295 36.1005 60.1285 37.4109C60.9594 38.7212 62.094 39.8558 63.5322 40.8146C64.9704 41.7415 66.6324 42.5565 68.518 43.2596C70.4037 43.9308 72.4172 44.506 74.5585 44.9854L83.3795 47.0948C87.6622 48.0536 91.5933 49.332 95.1729 50.93C98.7524 52.5281 101.853 54.4936 104.473 56.8267C107.094 59.1598 109.123 61.9084 110.562 65.0724C112.032 68.2365 112.783 71.864 112.815 75.9549C112.783 81.9634 111.249 87.1729 108.213 91.5835C105.208 95.962 100.862 99.3658 95.1729 101.795C89.5159 104.192 82.6924 105.39 74.7023 105.39C66.7762 105.39 59.8728 104.176 53.9921 101.747C48.1434 99.3178 43.5731 95.7223 40.2812 90.9602C37.0212 86.1662 35.3113 80.2376 35.1515 73.1744H55.2385C55.4623 76.4663 56.4051 79.2148 58.067 81.4201C59.7609 83.5934 62.0141 85.2393 64.8266 86.358C67.6711 87.4446 70.8831 87.9879 74.4626 87.9879C77.9782 87.9879 81.0305 87.4766 83.6192 86.4538C86.24 85.4311 88.2694 84.0089 89.7077 82.1871C91.1459 80.3654 91.865 78.272 91.865 75.907C91.865 73.7017 91.2098 71.848 89.8994 70.3459C88.621 68.8437 86.7354 67.5653 84.2425 66.5107C81.7815 65.456 78.7613 64.4972 75.1817 63.6342L64.491 60.9496C56.2133 58.9361 49.6775 55.788 44.8834 51.5053C40.0894 47.2227 37.7084 41.4538 37.7403 34.1989C37.7084 28.2543 39.2904 23.0607 42.4864 18.6183C45.7144 14.1758 50.1409 10.7081 55.7659 8.2152C61.3909 5.7223 67.7829 4.47585 74.942 4.47585C82.229 4.47585 88.589 5.7223 94.0223 8.2152C99.4875 10.7081 103.738 14.1758 106.774 18.6183C109.811 23.0607 111.377 28.2063 111.473 34.055H91.5773ZM165.561 30.3636V45.7045H121.216V30.3636H165.561ZM131.284 12.7216H151.706V81.3722C151.706 83.2578 151.994 84.728 152.569 85.7827C153.145 86.8054 153.944 87.5245 154.966 87.94C156.021 88.3555 157.236 88.5632 158.61 88.5632C159.569 88.5632 160.528 88.4833 161.486 88.3235C162.445 88.1317 163.18 87.9879 163.692 87.892L166.904 103.089C165.881 103.409 164.443 103.776 162.589 104.192C160.735 104.639 158.482 104.911 155.829 105.007C150.907 105.199 146.593 104.543 142.885 103.041C139.21 101.539 136.35 99.206 134.304 96.0419C132.259 92.8778 131.252 88.8828 131.284 84.0568V12.7216ZM211.344 105.438C203.898 105.438 197.458 103.856 192.024 100.692C186.623 97.4961 182.452 93.0536 179.512 87.3647C176.572 81.6438 175.101 75.0121 175.101 67.4695C175.101 59.8629 176.572 53.2152 179.512 47.5263C182.452 41.8054 186.623 37.3629 192.024 34.1989C197.458 31.0028 203.898 29.4048 211.344 29.4048C218.791 29.4048 225.215 31.0028 230.616 34.1989C236.05 37.3629 240.236 41.8054 243.177 47.5263C246.117 53.2152 247.587 59.8629 247.587 67.4695C247.587 75.0121 246.117 81.6438 243.177 87.3647C240.236 93.0536 236.05 97.4961 230.616 100.692C225.215 103.856 218.791 105.438 211.344 105.438ZM211.44 89.6179C214.828 89.6179 217.656 88.6591 219.926 86.7415C222.195 84.7919 223.905 82.1392 225.055 78.7834C226.238 75.4276 226.829 71.6083 226.829 67.3256C226.829 63.043 226.238 59.2237 225.055 55.8679C223.905 52.5121 222.195 49.8594 219.926 47.9098C217.656 45.9602 214.828 44.9854 211.44 44.9854C208.02 44.9854 205.144 45.9602 202.811 47.9098C200.51 49.8594 198.768 52.5121 197.585 55.8679C196.435 59.2237 195.86 63.043 195.86 67.3256C195.86 71.6083 196.435 75.4276 197.585 78.7834C198.768 82.1392 200.51 84.7919 202.811 86.7415C205.144 88.6591 208.02 89.6179 211.44 89.6179ZM260.867 104V30.3636H280.666V43.2116H281.433C282.775 38.6413 285.029 35.1896 288.193 32.8565C291.357 30.4915 295 29.3089 299.123 29.3089C300.146 29.3089 301.248 29.3729 302.431 29.5007C303.613 29.6286 304.652 29.8043 305.547 30.028V48.1495C304.588 47.8619 303.262 47.6062 301.568 47.3825C299.874 47.1587 298.324 47.0469 296.918 47.0469C293.914 47.0469 291.229 47.7021 288.864 49.0124C286.531 50.2908 284.677 52.0806 283.303 54.3817C281.96 56.6829 281.289 59.3356 281.289 62.3398V104H260.867ZM346.236 105.438C338.662 105.438 332.142 103.904 326.677 100.836C321.244 97.7358 317.057 93.3572 314.116 87.7003C311.176 82.0114 309.706 75.2837 309.706 67.5174C309.706 59.9428 311.176 53.2951 314.116 47.5742C317.057 41.8533 321.196 37.3949 326.533 34.1989C331.902 31.0028 338.198 29.4048 345.421 29.4048C350.279 29.4048 354.802 30.1879 358.989 31.7539C363.207 33.288 366.883 35.6051 370.015 38.7053C373.179 41.8054 375.64 45.7045 377.398 50.4027C379.155 55.0689 380.034 60.5341 380.034 66.7983V72.4073H317.856V59.7511H360.81C360.81 56.8107 360.171 54.206 358.893 51.9368C357.614 49.6676 355.84 47.8938 353.571 46.6154C351.334 45.305 348.729 44.6499 345.757 44.6499C342.657 44.6499 339.908 45.369 337.511 46.8072C335.146 48.2134 333.293 50.1151 331.95 52.5121C330.608 54.8771 329.921 57.5138 329.889 60.4222V72.4553C329.889 76.0987 330.56 79.2468 331.902 81.8995C333.277 84.5522 335.21 86.5977 337.703 88.0359C340.196 89.4741 343.152 90.1932 346.572 90.1932C348.841 90.1932 350.919 89.8736 352.804 89.2344C354.69 88.5952 356.304 87.6364 357.646 86.358C358.989 85.0795 360.011 83.5135 360.714 81.6598L379.603 82.9062C378.644 87.4446 376.679 91.4077 373.706 94.7955C370.766 98.1513 366.963 100.772 362.296 102.658C357.662 104.511 352.309 105.438 346.236 105.438Z" fill="black"/>
</svg>
