<svg width="121" height="121" viewBox="0 0 121 121" fill="none" xmlns="http://www.w3.org/2000/svg">
<path d="M85.0873 106.359H35.0356C16.7667 106.359 6.25586 95.8485 6.25586 77.5796V42.5434C6.25586 24.2745 16.7667 13.7637 35.0356 13.7637H85.0873C103.356 13.7637 113.867 24.2745 113.867 42.5434V77.5796C113.867 95.8485 103.356 106.359 85.0873 106.359ZM35.0356 21.2714C20.7208 21.2714 13.7636 28.2286 13.7636 42.5434V77.5796C13.7636 91.8944 20.7208 98.8516 35.0356 98.8516H85.0873C99.4021 98.8516 106.359 91.8944 106.359 77.5796V42.5434C106.359 28.2286 99.4021 21.2714 85.0873 21.2714H35.0356Z" fill="#292D32"/>
<path d="M60.0624 78.8317C49.7017 78.8317 41.293 70.4231 41.293 60.0624C41.293 49.7017 49.7017 41.293 60.0624 41.293C70.4231 41.293 78.8317 49.7017 78.8317 60.0624C78.8317 70.4231 70.4231 78.8317 60.0624 78.8317ZM60.0624 48.8007C53.8559 48.8007 48.8007 53.8559 48.8007 60.0624C48.8007 66.2688 53.8559 71.324 60.0624 71.324C66.2688 71.324 71.324 66.2688 71.324 60.0624C71.324 53.8559 66.2688 48.8007 60.0624 48.8007Z" fill="#292D32"/>
<path d="M15.0149 48.8012H10.0097C7.95762 48.8012 6.25586 47.0994 6.25586 45.0473C6.25586 42.9952 7.95762 41.2934 10.0097 41.2934H15.0149C27.9282 41.2934 31.2817 37.94 31.2817 25.0266V20.0215C31.2817 17.9693 32.9835 16.2676 35.0356 16.2676C37.0877 16.2676 38.7895 17.9693 38.7895 20.0215V25.0266C38.7895 42.1443 32.1326 48.8012 15.0149 48.8012Z" fill="#292D32"/>
<path d="M110.114 48.8012H105.109C87.9909 48.8012 81.334 42.1443 81.334 25.0266V20.0215C81.334 17.9693 83.0357 16.2676 85.0879 16.2676C87.14 16.2676 88.8417 17.9693 88.8417 20.0215V25.0266C88.8417 37.94 92.1952 41.2934 105.109 41.2934H110.114C112.166 41.2934 113.868 42.9952 113.868 45.0473C113.868 47.0994 112.166 48.8012 110.114 48.8012Z" fill="#292D32"/>
<path d="M35.0356 103.857C32.9835 103.857 31.2817 102.155 31.2817 100.103V95.0978C31.2817 82.1845 27.9282 78.831 15.0149 78.831H10.0097C7.95762 78.831 6.25586 77.1292 6.25586 75.0771C6.25586 73.025 7.95762 71.3232 10.0097 71.3232H15.0149C32.1326 71.3232 38.7895 77.9801 38.7895 95.0978V100.103C38.7895 102.155 37.0877 103.857 35.0356 103.857Z" fill="#292D32"/>
<path d="M85.0879 103.857C83.0357 103.857 81.334 102.155 81.334 100.103V95.0978C81.334 77.9801 87.9909 71.3232 105.109 71.3232H110.114C112.166 71.3232 113.868 73.025 113.868 75.0771C113.868 77.1292 112.166 78.831 110.114 78.831H105.109C92.1952 78.831 88.8417 82.1845 88.8417 95.0978V100.103C88.8417 102.155 87.14 103.857 85.0879 103.857Z" fill="#292D32"/>
</svg>
