<svg width="39" height="39" viewBox="0 0 39 39" fill="none" xmlns="http://www.w3.org/2000/svg">
<g id="Interface essential/Chat-1">
<g id="Icon">
<path fill-rule="evenodd" clip-rule="evenodd" d="M10.14 3.25361H27.2025C29.4317 3.18812 31.5946 4.01686 33.2092 5.55523C34.8239 7.0936 35.7563 9.21382 35.7988 11.4436V23.7774C35.6659 28.3612 31.8688 31.9844 27.2838 31.9024H24.6513C23.9895 31.9041 23.3634 32.2022 22.945 32.7149L20.4587 35.8836C20.0423 36.399 19.4151 36.6985 18.7525 36.6985C18.0899 36.6985 17.4627 36.399 17.0462 35.8836L14.4788 32.6499C14.0603 32.1372 13.4342 31.8391 12.7725 31.8374H10.14C5.55495 31.9194 1.75783 28.2962 1.625 23.7124V11.3786C1.7491 6.79087 5.55148 3.16264 10.14 3.25361ZM27.2188 29.4649C30.4825 29.5468 33.1989 26.9757 33.2962 23.7124V11.4436C33.1989 8.17374 30.4725 5.60003 27.2025 5.69111H10.14C6.86995 5.60003 4.14357 8.17374 4.04625 11.4436V23.7124C4.14357 26.9822 6.86995 29.5559 10.14 29.4649H12.7725C14.1815 29.4651 15.5144 30.1047 16.3962 31.2036L18.6712 34.0961L20.9462 31.2036C21.8281 30.1047 23.161 29.4651 24.57 29.4649H27.2188Z" fill="black"/>
<path d="M12.5775 14.5636C11.9044 14.5636 11.3587 15.1093 11.3587 15.7824V19.6824C11.3587 20.3555 11.9044 20.9011 12.5775 20.9011C13.2506 20.9011 13.7962 20.3555 13.7962 19.6824V15.7824C13.7962 15.1093 13.2506 14.5636 12.5775 14.5636Z" fill="black"/>
<path d="M18.6712 14.5636C17.9982 14.5636 17.4525 15.1093 17.4525 15.7824V19.6824C17.4525 20.3555 17.9982 20.9011 18.6712 20.9011C19.3443 20.9011 19.89 20.3555 19.89 19.6824V15.7824C19.89 15.1093 19.3443 14.5636 18.6712 14.5636Z" fill="black"/>
<path d="M24.765 14.5636C24.0919 14.5636 23.5462 15.1093 23.5462 15.7824V19.6824C23.5462 20.3555 24.0919 20.9011 24.765 20.9011C25.4381 20.9011 25.9837 20.3555 25.9837 19.6824V15.7824C25.9837 15.1093 25.4381 14.5636 24.765 14.5636Z" fill="black"/>
</g>
</g>
</svg>
