<svg width="27" height="39" viewBox="0 0 27 39" fill="none" xmlns="http://www.w3.org/2000/svg">
<g id="Icon">
<path d="M22.7957 25.9519C22.092 25.599 21.2348 25.8728 20.8671 26.5677C20.5274 27.2757 20.8083 28.1251 21.5036 28.4922C23.2007 29.3582 24.165 30.4167 24.165 31.4367C24.165 33.6114 19.6136 36.0363 13.5193 36.0363C7.425 36.0363 2.85429 33.6306 2.85429 31.5137C2.85429 30.5129 3.81857 29.4352 5.51571 28.5692C6.02467 28.3656 6.37446 27.8922 6.41905 27.3469C6.46363 26.8015 6.19534 26.2779 5.7262 25.9946C5.25705 25.7113 4.66772 25.7171 4.20429 26.0096C1.8628 26.8903 0.230422 29.0273 0 31.5137C0 35.7861 5.78571 39 13.5 39C21.2143 39 27 35.7861 27 31.5137C26.7909 29.0057 25.1548 26.8415 22.7957 25.9519Z" fill="black"/>
<path fill-rule="evenodd" clip-rule="evenodd" d="M12.0536 32.3605V24.0466C5.70258 23.2831 1.0463 17.7156 1.42958 11.3436C1.81286 4.97169 7.10308 0 13.5 0C19.8969 0 25.1871 4.97169 25.5704 11.3436C25.9537 17.7156 21.2974 23.2831 14.9464 24.0466V32.3605C14.9464 33.1576 14.2988 33.8038 13.5 33.8038C12.7012 33.8038 12.0536 33.1576 12.0536 32.3605ZM22.0324 8.54696C20.6006 5.10775 17.2321 2.86931 13.5 2.8771C8.42378 2.88768 4.31133 6.99146 4.30072 12.057C4.29292 15.7812 6.53609 19.1426 9.98258 20.5714C13.4291 22.0002 17.3988 21.2144 20.0378 18.581C22.6768 15.9476 23.4642 11.9862 22.0324 8.54696Z" fill="black"/>
<path d="M8.85215 14.1932C9.65099 14.1932 10.2986 13.5469 10.2986 12.7498C10.2986 10.539 12.0946 8.74683 14.31 8.74683C15.1088 8.74683 15.7564 8.10061 15.7564 7.30345C15.7564 6.5063 15.1088 5.86007 14.31 5.86007C12.4738 5.86517 10.7147 6.59797 9.41994 7.89726C8.12513 9.19656 7.4006 10.9559 7.40572 12.7883C7.4108 13.166 7.56605 13.5262 7.83732 13.7897C8.10858 14.0532 8.47363 14.1983 8.85215 14.1932Z" fill="black"/>
</g>
</svg>
