<svg width="15" height="16" viewBox="0 0 15 16" fill="none" xmlns="http://www.w3.org/2000/svg">
<path opacity="0.4" fill-rule="evenodd" clip-rule="evenodd" d="M0.847217 4.593C1.98524 1.81853 4.65166 0.0081318 7.61179 0.000104389C10.8021 -0.0169528 13.6388 2.05782 14.6333 5.13561C15.6278 8.21339 14.5529 11.5911 11.9726 13.4961C9.3923 15.4011 5.89616 15.3983 3.31889 13.4891L1.02083 15.8223C0.787183 16.0592 0.40867 16.0592 0.17502 15.8223C-0.0583399 15.5851 -0.0583399 15.2008 0.17502 14.9635L2.40126 12.7032C0.321763 10.5643 -0.290803 7.36746 0.847217 4.593ZM1.91418 9.85875C2.86969 12.1966 5.11883 13.7192 7.61179 13.7159V13.6835C10.9953 13.6791 13.742 10.9049 13.7639 7.46967C13.7671 4.93855 12.2674 2.655 9.96486 1.68486C7.66228 0.714734 5.01078 1.24931 3.24799 3.03909C1.48519 4.82886 0.958671 7.52093 1.91418 9.85875Z" fill="black"/>
</svg>
