<svg width="96" height="96" viewBox="0 0 96 96" fill="none" xmlns="http://www.w3.org/2000/svg">
<path d="M48 91C24.28 91 5 71.72 5 48C5 24.28 24.28 5 48 5C71.72 5 91 24.28 91 48C91 71.72 71.72 91 48 91ZM48 11C27.6 11 11 27.6 11 48C11 68.4 27.6 85 48 85C68.4 85 85 68.4 85 48C85 27.6 68.4 11 48 11Z" fill="#292D32"/>
<path d="M42.3198 62.3204C41.5198 62.3204 40.7598 62.0004 40.1998 61.4404L28.8798 50.1204C27.7198 48.9604 27.7198 47.0404 28.8798 45.8804C30.0398 44.7204 31.9598 44.7204 33.1198 45.8804L42.3198 55.0804L62.8798 34.5204C64.0398 33.3604 65.9598 33.3604 67.1198 34.5204C68.2798 35.6804 68.2798 37.6004 67.1198 38.7604L44.4398 61.4404C43.8798 62.0004 43.1198 62.3204 42.3198 62.3204Z" fill="#292D32"/>
</svg>
