<svg width="105" height="105" viewBox="0 0 105 105" fill="none" xmlns="http://www.w3.org/2000/svg">
<path d="M52.5 55.7812C38.6312 55.7812 27.3438 44.4938 27.3438 30.625C27.3438 16.7562 38.6312 5.46875 52.5 5.46875C66.3688 5.46875 77.6562 16.7562 77.6562 30.625C77.6562 44.4938 66.3688 55.7812 52.5 55.7812ZM52.5 12.0312C42.2625 12.0312 33.9062 20.3875 33.9062 30.625C33.9062 40.8625 42.2625 49.2188 52.5 49.2188C62.7375 49.2188 71.0938 40.8625 71.0938 30.625C71.0938 20.3875 62.7375 12.0312 52.5 12.0312Z" fill="#292D32"/>
<path d="M14.9199 99.5312C13.1262 99.5312 11.6387 98.0438 11.6387 96.25C11.6387 77.5688 29.97 62.3438 52.5013 62.3438C54.295 62.3438 55.7825 63.8313 55.7825 65.625C55.7825 67.4187 54.295 68.9062 52.5013 68.9062C33.6013 68.9062 18.2012 81.1562 18.2012 96.25C18.2012 98.0438 16.7137 99.5312 14.9199 99.5312Z" fill="#292D32"/>
<path d="M79.6251 96.9064C70.0876 96.9064 62.3438 89.1626 62.3438 79.6251C62.3438 70.0876 70.0876 62.3438 79.6251 62.3438C89.1626 62.3438 96.9064 70.0876 96.9064 79.6251C96.9064 89.1626 89.1626 96.9064 79.6251 96.9064ZM79.6251 68.9062C73.7188 68.9062 68.9062 73.7188 68.9062 79.6251C68.9062 85.5313 73.7188 90.3439 79.6251 90.3439C85.5313 90.3439 90.3439 85.5313 90.3439 79.6251C90.3439 73.7188 85.5313 68.9062 79.6251 68.9062Z" fill="#292D32"/>
<path d="M96.2499 99.5312C95.4187 99.5312 94.5873 99.2251 93.9311 98.5688L89.5561 94.1938C88.2873 92.9251 88.2873 90.8248 89.5561 89.5561C90.8248 88.2873 92.9251 88.2873 94.1938 89.5561L98.5688 93.9311C99.8376 95.1998 99.8376 97.3001 98.5688 98.5688C97.9126 99.2251 97.0812 99.5312 96.2499 99.5312Z" fill="#292D32"/>
</svg>
