<svg width="39" height="39" viewBox="0 0 39 39" fill="none" xmlns="http://www.w3.org/2000/svg">
<g id="Icon">
<path fill-rule="evenodd" clip-rule="evenodd" d="M11.951 0H27.049C33.6494 0 39 5.35063 39 11.951V27.049C39 33.6494 33.6494 39 27.049 39H11.951C5.35063 39 0 33.6494 0 27.049V11.951C0 5.35063 5.35063 0 11.951 0ZM27.049 36.0123C31.9947 36.0013 36.0013 31.9947 36.0123 27.049V11.951C36.0013 7.00526 31.9947 2.9987 27.049 2.98774H11.951C7.00526 2.9987 2.9987 7.00526 2.98774 11.951V27.049C2.9987 31.9947 7.00526 36.0013 11.951 36.0123H27.049Z" fill="black"/>
<path d="M19.5 12.0306C18.6794 12.0414 18.0169 12.704 18.0061 13.5245C18.0061 14.3528 18.6717 15.0274 19.5 15.0383C19.9014 15.0439 20.2876 14.8855 20.5696 14.5998C20.8515 14.3141 21.0048 13.9258 20.9939 13.5245C20.9939 12.6995 20.325 12.0306 19.5 12.0306Z" fill="black"/>
<path d="M19.5 17.7671C18.675 17.7671 18.0061 18.4359 18.0061 19.261V25.4755C18.0061 26.3005 18.675 26.9694 19.5 26.9694C20.325 26.9694 20.9939 26.3005 20.9939 25.4755V19.3008C21.0103 18.8962 20.8596 18.5026 20.577 18.2125C20.2944 17.9224 19.9049 17.7613 19.5 17.7671Z" fill="black"/>
</g>
</svg>
