<svg width="41" height="41" viewBox="0 0 41 41" fill="none" xmlns="http://www.w3.org/2000/svg">
<g id="Interface essential/World">
<path id="Icon" fill-rule="evenodd" clip-rule="evenodd" d="M4.66295 13.4654C7.19088 7.37597 13.1388 3.4096 19.732 3.41651C24.0528 3.41651 28.1964 5.13411 31.2501 8.19097C34.3037 11.2478 36.017 15.3932 36.0125 19.714C36.0125 26.3073 32.0399 32.251 25.9478 34.7726C19.8557 37.2941 12.8446 35.8966 8.18485 31.232C3.52515 26.5674 2.13502 19.5548 4.66295 13.4654ZM32.5104 24.6682C33.1069 23.085 33.4079 21.4058 33.3987 19.714C33.4371 16.6026 32.4126 13.5713 30.4945 11.1211C29.7258 12.4023 28.2737 14.3157 26.48 14.3157C25.7899 14.2602 25.0954 14.3296 24.43 14.5207V14.7086C24.43 15.0161 25.267 15.8532 25.7112 16.2973C26.8174 17.1222 27.554 18.3498 27.7612 19.714C27.7612 22.4473 28.0345 23.2844 28.2737 23.4894C29.7506 23.5951 31.1912 23.9959 32.5104 24.6682ZM6.06538 19.714C6.04984 16.675 7.04771 13.7174 8.90121 11.309C9.38527 12.1918 10.3205 12.7319 11.327 12.7098C12.7093 13.4068 13.9311 14.3843 14.9145 15.5798C14.191 16.0247 13.5351 16.5713 12.967 17.2028C12.9143 17.2535 12.8569 17.3094 12.7961 17.3687C12.3248 17.8276 11.6487 18.486 11.3612 18.5011C10.5703 18.4772 9.8046 18.7809 9.24509 19.3404C8.68557 19.8999 8.38188 20.6656 8.4058 21.4565C8.40825 21.6523 8.45497 21.8451 8.54246 22.0203L10.08 25.0953C10.0996 26.8639 10.3817 28.6199 10.917 30.3057C7.80066 27.6757 6.02147 23.7916 6.06538 19.714ZM15.0683 32.5607C16.5633 33.1033 18.1416 33.3808 19.732 33.3807V33.4319C24.4338 33.4635 28.8216 31.076 31.3487 27.1111C30.3183 26.6121 29.2181 26.2723 28.0858 26.1032C25.1304 26.1032 25.1304 21.8665 25.1304 19.8165C25.1304 19.5069 24.3688 18.7466 23.8982 18.2768C23.8754 18.254 23.8533 18.232 23.8321 18.2107C22.7337 17.3815 22.0039 16.1549 21.7991 14.794C21.7991 11.8386 24.8058 11.8386 26.4116 11.8386C26.8558 11.8215 27.915 10.5573 28.5641 9.29318C23.4985 5.00503 16.0842 4.97621 10.9854 9.22485C11.0112 9.37177 11.0112 9.52209 10.9854 9.66901C11.0025 10.079 11.1904 10.079 11.3783 10.079C13.4283 10.079 18.0237 14.2473 18.092 16.1948C18.0948 16.634 17.9096 17.0534 17.5831 17.3472C17.2567 17.641 16.8202 17.7812 16.3837 17.7323C16.0762 17.7494 15.2391 18.5865 14.795 19.0307C13.9639 20.13 12.7394 20.8647 11.3783 21.0807C11.2416 21.0807 11.0366 21.0807 11.0366 21.2515L12.5229 24.1044C12.6104 24.2796 12.6571 24.4724 12.6595 24.6682C12.6595 26.5303 13.0695 29.554 13.9579 30.4594C14.5777 30.9964 14.9738 31.7461 15.0683 32.5607Z" fill="black"/>
</g>
</svg>
