<svg width="144" height="144" viewBox="0 0 144 144" fill="none" xmlns="http://www.w3.org/2000/svg">
<rect width="144" height="144" fill="black"/>
<path d="M44.418 97V60.3594H54.3984V97H44.418ZM49.4082 56.3262C46.4004 56.3262 44.0762 54.0361 44.0762 51.165C44.0762 48.2598 46.4004 46.0039 49.4082 46.0039C52.416 46.0039 54.7402 48.2598 54.7402 51.165C54.7402 54.0361 52.416 56.3262 49.4082 56.3262ZM60.0723 82.9521H70.0186C70.4971 87.0195 74.7354 89.6855 80.2041 89.6855C85.707 89.6855 89.4668 87.0537 89.4668 83.4307C89.4668 80.2178 87.1084 78.4404 81.1611 77.1074L74.7354 75.7061C65.6436 73.7578 61.166 69.1436 61.166 61.9316C61.166 52.8398 69.0273 46.8242 80.0332 46.8242C91.5176 46.8242 98.7295 52.7373 98.9004 61.6582H89.2275C88.8857 57.4883 85.2285 54.959 80.0674 54.959C74.9746 54.959 71.5566 57.3857 71.5566 61.043C71.5566 64.085 73.9492 65.7939 79.623 67.0928L85.6045 68.3574C95.4824 70.4766 99.7891 74.7148 99.7891 82.2344C99.7891 91.8047 92.0303 97.8545 79.7939 97.8545C67.9336 97.8545 60.3799 92.2148 60.0723 82.9521Z" fill="white"/>
</svg>
